<svg id="centimeter" xmlns="http://www.w3.org/2000/svg" width="84.597" height="74.402" viewBox="0 0 84.597 74.402">
  <path id="Path_11" data-name="Path 11" d="M48.132-480.731c-.91.5-.91.413-.91,6.616v5.739l.43.331a.99.99,0,0,0,1.505-.05l.463-.4.05-4.978c.033-3.754.1-4.978.248-4.978.827,0,4.333.4,5.822.662a42.084,42.084,0,0,1,18.706,8.435,51.578,51.578,0,0,1,5.193,4.813c0,.083-8.716.149-21.716.149-22.758,0-23.5.017-27.5.761a46.976,46.976,0,0,0-20,8.981,77.075,77.075,0,0,0-6.979,6.45,15.065,15.065,0,0,0-2.481,4.4L.5-442.476v21.17l.38,1.24c2.167,6.979,10.75,12.288,21.666,13.413a55.627,55.627,0,0,0,10.949-.314c8.981-1.621,15.662-5.673,18.358-11.164,1.274-2.613,1.24-2.249,1.24-13.678,0-8.964-.033-10.287-.281-11.131l-.265-.943H67.665c14.521,0,15.15-.017,15.745-.314a2.62,2.62,0,0,0,1.439-1.555c.215-.513.248-1.753.248-8.418,0-7.244-.033-7.873-.314-8.484-.38-.843-6.219-6.6-8.617-8.518a44.112,44.112,0,0,0-23.9-9.593C49.952-480.979,48.546-480.963,48.132-480.731Zm34.4,26.595v7.691l-1.191.05-1.207.05v-1.571c0-1.488-.017-1.571-.43-1.9a1.135,1.135,0,0,0-1.571-.033c-.364.281-.4.48-.447,1.9l-.066,1.588H72.527v-3.821a22.981,22.981,0,0,0-.182-4.135,1.222,1.222,0,0,0-2.117.116,23.009,23.009,0,0,0-.182,4.118v3.721H64.919v-1.555c0-1.488-.017-1.588-.43-1.9a1.135,1.135,0,0,0-1.571-.033c-.364.281-.4.48-.447,1.9l-.066,1.588H57.311v-3.821a22.981,22.981,0,0,0-.182-4.135,1.222,1.222,0,0,0-2.117.116,23.008,23.008,0,0,0-.182,4.118v3.721H51.44l-.992-1.356c-2.63-3.556-7.558-6.533-13.479-8.137a43.215,43.215,0,0,0-18.524-.447,7.907,7.907,0,0,1-1.455.265,15.6,15.6,0,0,1,1.9-1.042,45.432,45.432,0,0,1,15.1-4.581c1.34-.165,7.062-.215,25.139-.182l23.4.017Zm-49.452-.017a30.852,30.852,0,0,1,10.635,3.787,17.813,17.813,0,0,1,5.689,5.574,9.071,9.071,0,0,1,1.174,4.466c0,4.168-3.06,8.137-8.435,10.883-11.329,5.789-28.249,4.052-35.923-3.688a11.057,11.057,0,0,1-2.8-4.267A6.46,6.46,0,0,1,3-440.326,8.332,8.332,0,0,1,4.4-445.3a17.922,17.922,0,0,1,3.8-4,30.675,30.675,0,0,1,13.678-5.061A50.479,50.479,0,0,1,33.082-454.153ZM6.272-429.774a20.771,20.771,0,0,0,4.333,2.729A34.234,34.234,0,0,0,20.347-424a52.941,52.941,0,0,0,12.322.083q9.4-1.464,15.216-6.318a18.7,18.7,0,0,0,1.9-1.869,4.241,4.241,0,0,1,.794-.86c.066,0,.116,2.266.116,5.044,0,6.367-.182,7.426-1.6,9.659a19.746,19.746,0,0,1-1.257,1.7,21.915,21.915,0,0,1-3.9,3.225l-.678.4v-3.49a20.045,20.045,0,0,0-.182-3.82,1.222,1.222,0,0,0-2.117.116,26.12,26.12,0,0,0-.182,4.449v4.035l-1.274.48a31.8,31.8,0,0,1-3.754,1.191,4.734,4.734,0,0,1-.1-1.323c0-1.207-.05-1.373-.413-1.737a1.06,1.06,0,0,0-1.654,0c-.38.364-.413.529-.413,1.968,0,1.505-.017,1.588-.364,1.67a33.556,33.556,0,0,1-3.969.413h-.794v-3.738a22.13,22.13,0,0,0-.182-4.052,1.222,1.222,0,0,0-2.117.116,22.3,22.3,0,0,0-.182,4.036v3.639L24.531-409c-.579,0-1.7-.1-2.53-.2l-1.489-.2-.083-1.7c-.083-1.555-.116-1.753-.48-2.034a1.083,1.083,0,0,0-1.588.1c-.364.364-.413.529-.413,1.737v1.356l-.529-.132c-.546-.116-3.258-1.009-4.135-1.373l-.463-.182v-4.135a26.365,26.365,0,0,0-.182-4.482,1.276,1.276,0,0,0-2.084-.017,36.583,36.583,0,0,0-.215,3.8l-.083,3.539-1.24-.827a14.779,14.779,0,0,1-5.193-5.607C3-421.009,2.9-421.836,2.9-427.674v-5.375l1.009,1.125A21.426,21.426,0,0,0,6.272-429.774Z" transform="translate(-0.5 480.916)" fill="#3f83e8"/>
  <path id="Path_12" data-name="Path 12" d="M95.745-283.728a15.629,15.629,0,0,0-4.267,1.191c-.777.43-1.058,1.059-.777,1.687.364.794.843.844,2.547.281a15.075,15.075,0,0,1,5.9-.794,11.943,11.943,0,0,1,7.112,2.514c2.63,2.365,1.919,5.226-1.786,7.1a12.951,12.951,0,0,1-6.384,1.29,12.069,12.069,0,0,1-3.622-.364c-3.738-1.009-6.136-3.209-5.838-5.342.066-.4.149-.91.215-1.141.248-1.059-1.422-1.819-2.117-.976-.794.976-.81,3.242-.05,4.879,1.6,3.39,6.93,5.772,12.322,5.474,5.342-.281,9.328-2.382,10.883-5.723a5.661,5.661,0,0,0,0-4.466C108-282.19,102.047-284.555,95.745-283.728Z" transform="translate(-71.962 316.478)" fill="#3f83e8"/>
</svg>
