<svg id="arrow-down-sign-to-navigate" xmlns="http://www.w3.org/2000/svg" width="291.474" height="511.123" viewBox="0 0 291.474 511.123">
  <g id="arrow-down-sign-to-navigate-2" data-name="arrow-down-sign-to-navigate" transform="translate(-110.25 -0.438) rotate(90)">
    <path id="Path_20" data-name="Path 20" d="M27.7-400.9C17.4-398.5,8-390.6,3.3-380.5,1-375.4.5-373.2.6-366c0,16-9.6,5.2,119.2,134.2,77.7,77.8,116,115.5,119.1,117.2a35.16,35.16,0,0,0,23.4,3.7,50.624,50.624,0,0,0,10.8-3.7c3.1-1.7,41.4-39.4,119.1-117.2C521-360.8,511.4-350,511.4-366c0-7.2-.4-9.4-2.8-14.7-8.4-18.4-30.8-26.2-49.1-17.1-2.6,1.3-38.8,36.8-103.7,101.6L256-196.5l-99.8-99.7C91-361.3,55.1-396.5,52.5-397.8A39,39,0,0,0,27.7-400.9Z" fill="#fff"/>
  </g>
</svg>
