<svg id="speedometer" xmlns="http://www.w3.org/2000/svg" width="512.2" height="441.976" viewBox="0 0 512.2 441.976">
  <path id="Path_13" data-name="Path 13" d="M229-475.9c-36.3,3.7-75.8,17.2-107.2,36.6-9.3,5.8-25.6,17.6-32.1,23.4l-3.8,3.4,33.4,33.4,33.4,33.3,7.4-5.4a164.785,164.785,0,0,1,23.7-14.7c13.6-6.9,36.9-14,51-15.6l6.2-.7v-47.4c0-44.5-.1-47.4-1.7-47.3C238.3-476.8,233.7-476.3,229-475.9Z" transform="translate(0.2 477)" fill="#3f83e8"/>
  <path id="Path_14" data-name="Path 14" d="M271-429.6v47.4l5.8.7c26.4,3.2,55.4,15,76.6,31.3l5.8,4.5,33.5-33.5,33.5-33.5-7.3-6.2c-12.7-10.6-33.7-24-50.4-32.2-29.5-14.4-56.3-21.8-91.7-25.3L271-477Z" transform="translate(0.2 477)" fill="#3f83e8"/>
  <path id="Path_15" data-name="Path 15" d="M57.6-383.1c-16.2,19.5-33.3,49.3-42.4,74.2C7.9-289.2,2.8-265.9.5-242.8L-.2-236H94.6l1.3-9.1a161.55,161.55,0,0,1,28.8-70.4l6.5-8.8L97.8-357.7,64.3-391.2Z" transform="translate(0.2 477)" fill="#3f83e8"/>
  <path id="Path_16" data-name="Path 16" d="M414.1-357.6l-33.3,33.3,6.5,8.8a163.1,163.1,0,0,1,28.9,70.7l1.2,8.8h47.3c37.3,0,47.3-.3,47.3-1.3,0-5-3.5-29.2-5.6-38.6-8.3-37.7-28.1-78.6-51.9-107.1-3.7-4.4-6.7-8-6.8-8S432.5-376,414.1-357.6Z" transform="translate(0.2 477)" fill="#3f83e8"/>
  <path id="Path_17" data-name="Path 17" d="M247.5-267c-31.5,6.9-47.3,38.9-33.5,67.5,6.1,12.7,25.8,28.3,89.2,70.8,16.7,11.2,39.9,26.5,51.7,34C374.6-82.1,376.6-81,381-81a14.54,14.54,0,0,0,13.6-20.3c-2.8-6.7-60.9-94.4-79.6-120.2-22.3-30.7-30.8-39.2-43.2-43.4C264.6-267.4,253.4-268.3,247.5-267Z" transform="translate(0.2 477)" fill="#3f83e8"/>
  <path id="Path_18" data-name="Path 18" d="M.5-199.3C6.4-138.8,29.8-86.9,69.9-44.8c8.6,9.1,12.5,10.9,19.3,8.9,3.6-1.1,8.3-5.3,29.1-25.9,32.9-32.8,33-32.9,18.2-49.8-23.3-26.6-37.4-57-41.1-88.7l-.7-5.7H-.2Z" transform="translate(0.2 477)" fill="#3f83e8"/>
  <path id="Path_19" data-name="Path 19" d="M416.6-200.3a160.574,160.574,0,0,1-12.3,44.5l-3.5,7.7,9.7,15.1c5.4,8.3,10.9,17.8,12.2,21.2a45.541,45.541,0,0,1-1.8,37c-2.7,5.3-11.8,14.9-16.4,17.4-1.9,1-3.5,2.1-3.5,2.4,0,.4,3.9,4.5,8.8,9.2,14.8,14.5,19.7,14.4,33.7-.5A255.055,255.055,0,0,0,507-168.7c1.8-8.3,5-31.9,5-36,0-1-10-1.3-47.4-1.3H417.3Z" transform="translate(0.2 477)" fill="#3f83e8"/>
</svg>
